<svg aria-hidden="true" viewBox="0 0 24 24" xmlns="http://www.w3.org/2000/svg">
  <path d="M12 0.5C5.73 0.5 0.5 5.74 0.5 12.02c0 5.11 3.29 9.44 7.86 10.97.58.11.79-.25.79-.56 0-.28-.01-1.02-.02-2-3.2.7-3.88-1.54-3.88-1.54-.53-1.35-1.29-1.71-1.29-1.71-1.05-.72.08-.71.08-.71 1.16.08 1.77 1.2 1.77 1.2 1.04 1.78 2.73 1.27 3.39.97.1-.76.41-1.27.74-1.56-2.55-.29-5.23-1.28-5.23-5.7 0-1.26.45-2.28 1.19-3.09-.12-.3-.52-1.52.11-3.16 0 0 .97-.31 3.18 1.18.92-.26 1.9-.39 2.88-.39.98 0 1.96.13 2.88.39 2.2-1.49 3.17-1.18 3.17-1.18.64 1.64.24 2.86.12 3.16.74.81 1.19 1.83 1.19 3.09 0 4.43-2.69 5.41-5.25 5.69.42.36.79 1.09.79 2.2 0 1.59-.01 2.87-.01 3.26 0 .31.21.68.8.56 4.57-1.53 7.85-5.86 7.85-10.97C23.5 5.74 18.27 0.5 12 0.5z" fill="white"/>
</svg>
